:version 1.10
:name ASF
:units
  mass 1
  length 1
  angle deg
:documentation
  ASF file generated by Kaydara
:root
  axis xyz
  order  tx ty tz rx ry rz
  position 0 0 0
  orientation 0 0 0
:bonedata
  begin
    id 1
    name RightUpLegDummy
    direction -0.65628 -0.754516 0.00165102
    length 4.76918
    axis 0 0 0 xyz
  end
  begin
    id 2
    name RightUpLeg
    direction -0.145584 -0.923362 0.355256
    length 17.9961
    axis -24.7611 -13.1006 1.78531 xyz
    dof rx ry rz
  end
  begin
    id 3
    name RightLeg
    direction 0.263379 0.172355 -0.949171
    length 13.3386
    axis 89.6202 -21.1929 12.3855 xyz
    dof rx ry rz
  end
  begin
    id 4
    name RightFoot
    direction 0.224283 -0.968777 -0.105675
    length 5.86697
    axis 56.995 -39.6905 17.3365 xyz
    dof rx ry rz
  end
  begin
    id 5
    name RightToes
    direction -0.0806345 -0.9037 0.420506
    length 4.75197
    axis 146.825 -39.7828 17.6019 xyz
    dof rx ry rz
  end
  begin
    id 6
    name SpineDummy
    direction -3.39852e-014 1 9.33296e-014
    length 8.13779
    axis 0 0 0 xyz
  end
  begin
    id 7
    name Spine
    direction -0.156609 0.733703 0.661176
    length 7.14978
    axis 41.2365 5.68757 17.0844 xyz
    dof rx ry rz
  end
  begin
    id 8
    name Spine1
    direction 0 0 0
    length 0
    axis 42.8809 47.8308 -3.36039 xyz
    dof rx ry rz
  end
  begin
    id 9
    name HEadDummy
    direction 0.546431 0.701947 0.456819
    length 3.55512
    axis 42.8809 47.8308 -3.36039 xyz
  end
  begin
    id 10
    name HEad
    direction 0.23444 0.828559 0.508457
    length 7.35827
    axis 51.1864 49.2662 27.4903 xyz
    dof rx ry rz
  end
  begin
    id 11
    name LeftShoulder1Dummy
    direction 0.431183 0.475873 -0.766568
    length 2.49352
    axis 42.8809 47.8308 -3.36039 xyz
  end
  begin
    id 12
    name LeftShoulder1
    direction 0.268187 -0.383402 -0.883786
    length 4.48604
    axis -119.517 0.106469 35.1736 xyz
    dof rx ry rz
  end
  begin
    id 13
    name LeftArm
    direction 0.380567 -0.703221 -0.600541
    length 10.1142
    axis -5.41825 36.2925 7.8293 xyz
    dof rx ry rz
  end
  begin
    id 14
    name LeftForeArm
    direction 0.541071 -0.732356 -0.413396
    length 9.39839
    axis 4.65387 33.7604 7.81644 xyz
    dof rx ry rz
  end
  begin
    id 15
    name LeftHand
    direction 0.847511 -0.389379 -0.360707
    length 3.66142
    axis 7.65593 21.1436 -24.6758 xyz
    dof rx ry rz
  end
  begin
    id 16
    name RightShoulderDummy
    direction -0.692546 0.541855 0.476208
    length 2.49352
    axis 42.8809 47.8308 -3.36039 xyz
  end
  begin
    id 17
    name RightShoulder
    direction -0.870808 -0.316653 0.376065
    length 4.48602
    axis 141.571 51.133 -100.254 xyz
    dof rx ry rz
  end
  begin
    id 18
    name RightArm
    direction 0.366897 -0.87275 0.322015
    length 10.1142
    axis 92.3258 71.2036 138.917 xyz
    dof rx ry rz
  end
  begin
    id 19
    name RightForeArm
    direction 0.702487 -0.694568 0.155197
    length 9.39835
    axis 153.863 41.5092 -176.604 xyz
    dof rx ry rz
  end
  begin
    id 20
    name RightHand
    direction 0.79502 -0.601276 0.0800636
    length 3.66142
    axis 154.247 4.59222 142.9 xyz
    dof rx ry rz
  end
  begin
    id 21
    name LeftUpLegDummy
    direction 0.65628 -0.754516 0.00165102
    length 4.76919
    axis 0 0 0 xyz
  end
  begin
    id 22
    name LeftUpLeg
    direction -0.1277 -0.689368 0.713067
    length 17.9961
    axis -48.3385 -17.8675 0.791927 xyz
    dof rx ry rz
  end
  begin
    id 23
    name LeftLeg
    direction 0.109849 -0.991246 -0.0732378
    length 13.3386
    axis -2.05791 -7.30784 1.72042 xyz
    dof rx ry rz
  end
  begin
    id 24
    name LeftFoot
    direction 0.0448355 -0.272614 0.961078
    length 5.86697
    axis -18.7733 -7.89606 10.2113 xyz
    dof rx ry rz
  end
  begin
    id 25
    name LeftToes
    direction -0.18506 0.293668 0.937823
    length 4.75197
    axis 71.2267 -7.89606 10.2113 xyz
    dof rx ry rz
  end
:hierarchy
  begin
    root RightUpLegDummy SpineDummy LeftUpLegDummy
    RightUpLegDummy RightUpLeg
    RightUpLeg RightLeg
    RightLeg RightFoot
    RightFoot RightToes
    SpineDummy Spine
    Spine Spine1
    Spine1 HEadDummy LeftShoulder1Dummy RightShoulderDummy
    HEadDummy HEad
    LeftShoulder1Dummy LeftShoulder1
    LeftShoulder1 LeftArm
    LeftArm LeftForeArm
    LeftForeArm LeftHand
    RightShoulderDummy RightShoulder
    RightShoulder RightArm
    RightArm RightForeArm
    RightForeArm RightHand
    LeftUpLegDummy LeftUpLeg
    LeftUpLeg LeftLeg
    LeftLeg LeftFoot
    LeftFoot LeftToes
  end

:SAMPLES-PER-SECOND 30
:FULLY-SPECIFIED
:DEGREES
205
root  0.943744 36.5385 -10.2615 145.643 71.9817 144.796
RightUpLeg  -0.857499 -1.94396 17.3159
RightLeg  -3.8224 -30.8513 -3.36468
RightFoot  6.49468 5.24829 -13.9189
RightToes  -1.27222e-014 -6.36111e-015 6.36111e-015
Spine  -17.0932 -24.6099 -25.8066
Spine1  6.58867 -13.8465 39.5855
HEad  -21.8446 -54.001 7.07127
LeftShoulder1  6.36111e-015 -1.33558e-015 6.49777e-015
LeftArm  1.74271 -9.19527 -8.5883
LeftForeArm  -49.468 -48.8245 31.4083
LeftHand  -2.12891 -4.82574 -6.63995
RightShoulder  -4.77083e-015 -6.36111e-015 -3.18055e-015
RightArm  68.4679 -44.3496 -18.3804
RightForeArm  -4.38004 -4.39359 0.153279
RightHand  -1.69189 4.89068 10.0153
LeftUpLeg  20.7282 34.9827 23.4435
LeftLeg  -6.08266 10.0383 -0.598292
LeftFoot  13.1385 5.37205 -12.6761
LeftToes  1.27222e-014 -5.20697e-012 1.80337e-011
206
root  0.290512 37.5597 -10.9699 91.8273 81.5251 91.2878
RightUpLeg  -0.62568 3.52994 15.9402
RightLeg  -17.2169 -32.3726 0.66631
RightFoot  6.77038 6.36005 -16.2413
RightToes  -1.27222e-014 -6.36111e-015 6.36111e-015
Spine  -19.319 -26.1045 -28.3617
Spine1  6.04064 -14.1452 43.2624
HEad  -18.6107 -51.636 5.48506
LeftShoulder1  6.36111e-015 -1.33558e-015 6.49777e-015
LeftArm  0.937319 -6.07525 1.32213
LeftForeArm  -48.6155 -48.1724 29.8977
LeftHand  -2.17878 -4.93915 -7.01335
RightShoulder  -4.77083e-015 -6.36111e-015 -3.18055e-015
RightArm  75.0289 -42.3664 -13.3484
RightForeArm  -8.26559 -8.31983 -3.8637
RightHand  -1.85638 5.98888 10.9477
LeftUpLeg  24.684 26.7102 23.1555
LeftLeg  -8.83486 5.91432 -1.35788
LeftFoot  14.4282 5.0806 -11.6447
LeftToes  1.27222e-014 -5.20697e-012 1.80337e-011
207
root  -0.270123 38.1818 -11.7994 29.4787 74.1062 29.7669
RightUpLeg  -2.00411 6.88169 10.8357
RightLeg  -31.484 -29.9444 4.56865
RightFoot  6.4625 8.27145 -20.1226
RightToes  -1.27222e-014 -6.36111e-015 6.36111e-015
Spine  -21.4279 -26.8337 -29.3192
Spine1  5.45281 -14.2121 45.8484
HEad  -16.562 -50.6729 4.49805
LeftShoulder1  6.36111e-015 -1.33558e-015 6.49777e-015
LeftArm  0.51024 -2.2657 9.64946
LeftForeArm  -46.7432 -47.5308 27.8831
LeftHand  -2.22432 -5.00318 -7.76242
RightShoulder  -4.77083e-015 -6.36111e-015 -3.18055e-015
RightArm  86.1581 -36.17 -17.8493
RightForeArm  -12.9742 -8.95717 -8.02289
RightHand  -1.93414 7.14713 10.7266
LeftUpLeg  29.3392 19.4362 19.4429
LeftLeg  -7.38164 1.60628 -1.03314
LeftFoot  9.45925 3.43202 -8.88584
LeftToes  1.27222e-014 -5.20697e-012 1.80337e-011
208
root  -0.731265 38.5609 -12.7699 17.1122 62.6961 18.4479
RightUpLeg  -5.61534 6.49853 3.64063
RightLeg  -45.2171 -23.6155 5.16104
RightFoot  8.70614 8.78934 -21.3579
RightToes  -1.27222e-014 -6.36111e-015 6.36111e-015
Spine  -23.1595 -27.0481 -28.4695
Spine1  4.22507 -14.2872 48.2132
HEad  -16.0129 -50.1718 3.91357
LeftShoulder1  6.36111e-015 -1.33558e-015 6.49777e-015
LeftArm  -0.950542 2.29056 16.9725
LeftForeArm  -46.8796 -48.2477 28.9818
LeftHand  -2.30382 -5.17423 -8.56705
RightShoulder  -4.77083e-015 -6.36111e-015 -3.18055e-015
RightArm  94.4653 -23.8317 -26.5266
RightForeArm  -17.7381 -7.25202 -9.80143
RightHand  -1.85128 7.63245 8.66437
LeftUpLeg  34.5158 17.204 15.0866
LeftLeg  -4.25275 -4.32437 -0.872189
LeftFoot  3.20096 3.54455 -10.8279
LeftToes  1.27222e-014 -5.20697e-012 1.80337e-011
209
root  -1.08016 38.6427 -13.8316 12.0732 51.1528 13.6181
RightUpLeg  -10.3797 5.40405 -0.595759
RightLeg  -59.8242 -19.7723 5.87063
RightFoot  10.6184 8.08221 -20.1477
RightToes  -1.27222e-014 -6.36111e-015 6.36111e-015
Spine  -25.7155 -25.895 -25.0562
Spine1  3.28849 -14.0008 48.995
HEad  -15.9607 -49.6067 3.75139
LeftShoulder1  6.36111e-015 -1.33558e-015 6.49777e-015
LeftArm  -4.09873 6.58212 23.9801
LeftForeArm  -48.5285 -49.7214 32.1596
LeftHand  -2.40649 -5.45588 -9.10441
RightShoulder  -4.77083e-015 -6.36111e-015 -3.18055e-015
RightArm  95.9732 -9.64913 -33.2472
RightForeArm  -20.4605 -6.63042 -10.6666
RightHand  -1.62315 7.57483 4.96836
LeftUpLeg  39.1965 17.1085 11.8051
LeftLeg  -2.46161 -14.9442 -1.60226
LeftFoot  0.534486 5.71545 -18.8256
LeftToes  1.27222e-014 -5.20697e-012 1.80337e-011
210
root  -1.32115 38.2346 -14.8029 8.48308 38.6865 9.22968
RightUpLeg  -14.8509 8.14782 0.108319
RightLeg  -74.3542 -18.0558 9.42221
RightFoot  11.0814 9.19812 -22.2851
RightToes  -1.27222e-014 -6.36111e-015 6.36111e-015
Spine  -27.8712 -23.5101 -20.3385
Spine1  2.11494 -13.6471 46.9123
HEad  -15.0298 -48.4758 3.54399
LeftShoulder1  6.36111e-015 -1.33558e-015 6.49777e-015
LeftArm  -7.97333 8.9616 31.7584
LeftForeArm  -49.4074 -50.9217 34.5723
LeftHand  -2.42606 -5.52093 -9.09434
RightShoulder  -4.77083e-015 -6.36111e-015 -3.18055e-015
RightArm  91.2588 3.49257 -39.028
RightForeArm  -20.6226 -6.25642 -10.8853
RightHand  -1.2016 6.68709 0.542269
LeftUpLeg  43.846 18.0518 10.8625
LeftLeg  -3.91007 -23.3762 -1.73002
LeftFoot  -0.170845 6.65562 -22.3481
LeftToes  1.27222e-014 -5.20697e-012 1.80337e-011
211
root  -1.4863 37.4008 -15.4067 5.49564 26.8069 6.04019
RightUpLeg  -17.642 12.3881 2.57941
RightLeg  -83.4264 -16.7861 13.2667
RightFoot  12.4438 11.0517 -25.7496
RightToes  -1.27222e-014 -6.36111e-015 6.36111e-015
Spine  -27.3503 -22.5316 -17.9467
Spine1  -0.355102 -14.031 44.8726
HEad  -13.2334 -46.3974 3.1119
LeftShoulder1  6.36111e-015 -1.33558e-015 6.49777e-015
LeftArm  -11.372 8.83632 40.6552
LeftForeArm  -46.7901 -52.0301 34.3239
LeftHand  -2.31565 -5.20689 -8.62196
RightShoulder  -4.77083e-015 -6.36111e-015 -3.18055e-015
RightArm  84.5908 14.1516 -41.1225
RightForeArm  -19.8174 -6.87515 -10.4161
RightHand  -0.781132 5.66446 -2.57264
LeftUpLeg  50.0057 20.6519 12.1077
LeftLeg  -7.94066 -23.2646 -0.610057
LeftFoot  -4.04913 4.11226 -15.7688
LeftToes  1.27222e-014 -5.20697e-012 1.80337e-011
212
root  -1.63224 36.4055 -15.6446 2.81212 17.0451 4.60411
RightUpLeg  -19.8771 11.781 4.83699
RightLeg  -82.9309 -18.0518 16.2002
RightFoot  13.7309 10.7181 -25.1221
RightToes  -1.27222e-014 -6.36111e-015 6.36111e-015
Spine  -25.7669 -23.1604 -18.253
Spine1  -1.53652 -14.6284 46.1816
HEad  -12.0949 -44.5079 3.55772
LeftShoulder1  6.36111e-015 -1.33558e-015 6.49777e-015
LeftArm  -14.5205 7.54499 47.9756
LeftForeArm  -40.8145 -53.6013 32.1157
LeftHand  -2.15859 -4.76215 -8.07017
RightShoulder  -4.77083e-015 -6.36111e-015 -3.18055e-015
RightArm  80.2192 22.2682 -39.1416
RightForeArm  -18.1028 -6.31943 -10.3079
RightHand  -0.812653 5.57766 -1.96082
LeftUpLeg  56.9282 24.4719 14.6549
LeftLeg  -12.6407 -17.5263 0.00795598
LeftFoot  -13.1616 1.44846 -7.94328
LeftToes  1.27222e-014 -5.20697e-012 1.80337e-011
213
root  -1.72977 35.6272 -15.4366 0.981018 8.88094 4.55014
RightUpLeg  -21.5214 7.91756 6.07758
RightLeg  -78.4754 -21.751 19.8469
RightFoot  13.8048 7.83036 -19.9848
RightToes  -1.27222e-014 -6.36111e-015 6.36111e-015
Spine  -26.0445 -24.1175 -19.323
Spine1  0.873385 -15.1071 48.4161
HEad  -12.0605 -44.4696 5.17857
LeftShoulder1  6.36111e-015 -1.33558e-015 6.49777e-015
LeftArm  -17.411 7.8812 49.473
LeftForeArm  -36.6657 -55.3682 31.2046
LeftHand  -1.96995 -4.21985 -7.62323
RightShoulder  -4.77083e-015 -6.36111e-015 -3.18055e-015
RightArm  75.7181 26.3357 -40.2436
RightForeArm  -15.9143 0.188628 -12.8063
RightHand  -1.27921 6.72568 1.57609
LeftUpLeg  61.1315 28.5336 17.7048
LeftLeg  -12.7232 -13.3171 -0.445935
LeftFoot  -19.7169 0.922153 -7.22176
LeftToes  1.27222e-014 -5.20697e-012 1.80337e-011
214
root  -1.78395 35.4476 -14.8679 0.556686 1.89651 3.93227
RightUpLeg  -21.3516 3.88847 7.55525
RightLeg  -77.7873 -24.2776 23.6318
RightFoot  12.9266 5.07078 -14.9618
RightToes  -1.27222e-014 -6.36111e-015 6.36111e-015
Spine  -28.1154 -23.7074 -18.0373
Spine1  3.83073 -15.4663 50.1399
HEad  -11.4682 -45.8515 5.85488
LeftShoulder1  6.36111e-015 -1.33558e-015 6.49777e-015
LeftArm  -18.2063 10.502 43.7013
LeftForeArm  -38.8651 -56.2937 33.9167
LeftHand  -1.65929 -3.30559 -7.22577
RightShoulder  -4.77083e-015 -6.36111e-015 -3.18055e-015
RightArm  69.6563 23.8599 -46.8437
RightForeArm  -16.7379 9.50315 -18.2107
RightHand  -1.55682 7.25331 4.5934
LeftUpLeg  59.6045 31.0505 20.2347
LeftLeg  -4.9391 -10.008 -1.12801
LeftFoot  -16.3831 1.94843 -12.8521
LeftToes  1.27222e-014 -5.20697e-012 1.80337e-011
215
root  -1.87045 35.7553 -14.1692 1.29425 -3.66785 1.81615
RightUpLeg  -19.6506 -1.40334 10.4879
RightLeg  -80.0004 -23.084 23.8207
RightFoot  12.5421 4.61494 -14.0697
RightToes  -1.27222e-014 -6.36111e-015 6.36111e-015
Spine  -28.9507 -21.664 -14.4857
Spine1  3.483 -15.6564 53.0788
HEad  -9.2488 -46.9588 3.79913
LeftShoulder1  6.36111e-015 -1.33558e-015 6.49777e-015
LeftArm  -15.9153 12.8742 33.7707
LeftForeArm  -43.2436 -55.6886 36.5902
LeftHand  -1.30395 -2.30318 -6.66805
RightShoulder  -4.77083e-015 -6.36111e-015 -3.18055e-015
RightArm  67.6592 16.3896 -52.1169
RightForeArm  -21.985 13.2616 -23.2835
RightHand  -1.38045 5.89624 4.6925
LeftUpLeg  51.1149 30.7009 20.8929
LeftLeg  9.31519 -5.93855 -0.768805
LeftFoot  -0.691196 4.53948 -15.5657
LeftToes  1.27222e-014 -5.20697e-012 1.80337e-011
216
root  -2.04507 35.7404 -13.5243 1.98409 -8.98364 -0.709869
RightUpLeg  -18.3368 -7.66071 14.0491
RightLeg  -78.7442 -20.7773 18.0662
RightFoot  12.492 5.79472 -16.1771
RightToes  -1.27222e-014 -6.36111e-015 6.36111e-015
Spine  -27.5799 -18.5264 -10.1253
Spine1  1.94745 -15.1854 56.8052
HEad  -8.17102 -47.2954 1.65773
LeftShoulder1  6.36111e-015 -1.33558e-015 6.49777e-015
LeftArm  -12.9443 12.5914 23.662
LeftForeArm  -43.5331 -54.4107 35.1513
LeftHand  -1.11274 -1.81176 -6.18793
RightShoulder  -4.77083e-015 -6.36111e-015 -3.18055e-015
RightArm  69.9193 8.40118 -54.2233
RightForeArm  -26.9373 11.7082 -24.5644
RightHand  -1.07738 4.8568 2.762
LeftUpLeg  39.2585 28.3098 19.8633
LeftLeg  25.9304 -4.09554 0.365714
LeftFoot  15.2708 5.55488 -12.4768
LeftToes  1.27222e-014 -5.20697e-012 1.80337e-011
217
root  -2.24958 35.4073 -12.7232 1.37926 -17.0634 -1.28198
RightUpLeg  -16.583 -10.5997 15.854
RightLeg  -73.9328 -18.9557 10.7416
RightFoot  11.2417 7.10221 -18.3799
RightToes  -1.27222e-014 -6.36111e-015 6.36111e-015
Spine  -26.4655 -16.2568 -8.22383
Spine1  3.44307 -14.2561 57.0876
HEad  -11.5521 -47.4944 3.16734
LeftShoulder1  6.36111e-015 -1.33558e-015 6.49777e-015
LeftArm  -11.8173 8.85234 14.9115
LeftForeArm  -41.0947 -53.3643 32.0216
LeftHand  -1.13851 -1.9011 -6.12784
RightShoulder  -4.77083e-015 -6.36111e-015 -3.18055e-015
RightArm  72.7428 0.626081 -55.1383
RightForeArm  -28.5638 10.808 -24.5869
RightHand  -0.856331 3.93439 1.88368
LeftUpLeg  30.0071 27.4298 18.6558
LeftLeg  41.083 -2.14296 2.91405
LeftFoot  17.0903 4.62623 -10.0039
LeftToes  1.27222e-014 -5.20697e-012 1.80337e-011
218
root  -2.43573 35.3401 -11.7229 0.211731 -28.4796 -0.558228
RightUpLeg  -12.9342 -8.50629 16.5989
RightLeg  -70.1329 -16.6707 4.6394
RightFoot  8.51374 6.79951 -17.415
RightToes  -1.27222e-014 -6.36111e-015 6.36111e-015
Spine  -27.0752 -14.62 -8.01265
Spine1  7.83058 -13.0228 53.8552
HEad  -16.9603 -47.4466 6.56048
LeftShoulder1  6.36111e-015 -1.33558e-015 6.49777e-015
LeftArm  -11.2785 2.72353 7.35535
LeftForeArm  -39.6085 -53.3715 30.9847
LeftHand  -1.24729 -2.14687 -6.57573
RightShoulder  -4.77083e-015 -6.36111e-015 -3.18055e-015
RightArm  73.497 -9.20796 -55.6191
RightForeArm  -26.3879 13.8069 -26.0062
RightHand  -0.588623 2.21009 1.92746
LeftUpLeg  23.8594 27.7684 18.1034
LeftLeg  52.247 0.178596 8.08583
LeftFoot  9.84984 3.25275 -8.34486
LeftToes  1.27222e-014 -5.20697e-012 1.80337e-011
